<svg width="1158" height="100" viewBox="0 0 1158 100" fill="none" xmlns="http://www.w3.org/2000/svg">
<circle cx="898.5" cy="50.5" r="12.5" fill="#D9D9D9"/>
<path d="M923 100H848V0H923V25H873V75H923V100Z" fill="#D9D9D9"/>
<path d="M1083 0H1058V100H1083V62.5H1133V100H1158V0H1133V37.5H1083V0Z" fill="#D9D9D9"/>
<path d="M1028 100H953V0H1028V25H978V75H1028V100Z" fill="#D9D9D9"/>
<circle cx="402.5" cy="49.5" r="12.5" fill="#D9D9D9"/>
<path fill-rule="evenodd" clip-rule="evenodd" d="M403 100C430.614 100 453 77.6142 453 50C453 22.3858 430.614 0 403 0C375.386 0 353 22.3858 353 50C353 77.6142 375.386 100 403 100ZM403 77.5C418.188 77.5 430.5 65.1878 430.5 50C430.5 34.8122 418.188 22.5 403 22.5C387.812 22.5 375.5 34.8122 375.5 50C375.5 65.1878 387.812 77.5 403 77.5Z" fill="#D9D9D9"/>
<path d="M323 0H235.5V25H290.188L235.5 75V100H323V75H268.312L323 25V0Z" fill="#D9D9D9"/>
<path d="M155.5 0L105.5 100H130.5L155.5 50L170.5 75H155.5L143 100H205.5L180.5 50L155.5 0Z" fill="#D9D9D9"/>
<path d="M25 0H0V100H75.5V75H25V0Z" fill="#D9D9D9"/>
<circle cx="533.5" cy="50.5" r="12.5" fill="#D9D9D9"/>
<path d="M508 100H483V0H558V25H508V100Z" fill="#D9D9D9"/>
<circle cx="638.5" cy="50.5" r="12.5" fill="#D9D9D9"/>
<path d="M613 100H588V0H663V25H613V100Z" fill="#D9D9D9"/>
<path d="M818 0H718V25H755.5V100H780.5V25H818V0Z" fill="#D9D9D9"/>
</svg>
