<svg fill="none" height="100" viewBox="0 0 1158 100" width="1158" xmlns="http://www.w3.org/2000/svg"><g fill="#313131"><circle cx="898.5" cy="50.5" r="12.5"/><path d="m923 100h-75v-100h75v25h-50v50h50z"/><path d="m1083 0h-25v100h25v-37.5h50v37.5h25v-100h-25v37.5h-50z"/><path d="m1028 100h-75v-100h75v25h-50v50h50z"/><circle cx="402.5" cy="49.5" r="12.5"/><path clip-rule="evenodd" d="m403 100c27.614 0 50-22.3858 50-50s-22.386-50-50-50-50 22.3858-50 50 22.386 50 50 50zm0-22.5c15.188 0 27.5-12.3122 27.5-27.5s-12.312-27.5-27.5-27.5-27.5 12.3122-27.5 27.5 12.312 27.5 27.5 27.5z" fill-rule="evenodd"/><path d="m323 0h-87.5v25h54.688l-54.688 50v25h87.5v-25h-54.688l54.688-50z"/><path d="m155.5 0-50 100h25l25-50 15 25h-15l-12.5 25h62.5l-25-50z"/><path d="m25 0h-25v100h75.5v-25h-50.5z"/><circle cx="533.5" cy="50.5" r="12.5"/><path d="m508 100h-25v-100h75v25h-50z"/><circle cx="638.5" cy="50.5" r="12.5"/><path d="m613 100h-25v-100h75v25h-50z"/><path d="m818 0h-100v25h37.5v75h25v-75h37.5z"/></g></svg>